<?xml version="1.0" encoding="utf-8"?>
<!-- Generator: Adobe Illustrator 15.1.0, SVG Export Plug-In . SVG Version: 6.00 Build 0)  -->
<!DOCTYPE svg PUBLIC "-//W3C//DTD SVG 1.1//EN" "http://www.w3.org/Graphics/SVG/1.1/DTD/svg11.dtd">
<svg version="1.1" id="Layer_1" xmlns="http://www.w3.org/2000/svg" xmlns:xlink="http://www.w3.org/1999/xlink" x="0px" y="0px"
	 width="600px" height="500px" viewBox="0 0 600 500" enable-background="new 0 0 600 500" xml:space="preserve">
<image overflow="visible" enable-background="new    " width="331" height="495" xlink:href="5EE624AF.png"  transform="matrix(1 0 0 1 135 4)">
</image>
<text transform="matrix(1 0 0 1 291 271)" fill="#CC3333" font-family="'MyriadPro-Semibold'" font-size="15">Select one of three example files from the </text>
<text transform="matrix(1 0 0 1 291 289)" fill="#CC3333" font-family="'MyriadPro-Semibold'" font-size="15" letter-spacing="31">     </text>
<text transform="matrix(1 0 0 1 471 289)" fill="#CC3333" font-family="'MyriadPro-Semibold'" font-size="15">dropdown menu</text>
<rect x="145.5" y="280" fill="none" stroke="#CC3333" stroke-width="4" stroke-miterlimit="10" width="304" height="39.5"/>
<rect x="144" y="334" fill="none" stroke="#CC3333" stroke-width="4" stroke-miterlimit="10" width="307.5" height="94.5"/>
<text transform="matrix(1 0 0 1 22 343)" fill="#CC3333" font-family="'MyriadPro-Semibold'" font-size="15">This box contains </text>
<text transform="matrix(1 0 0 1 22 361)" fill="#CC3333" font-family="'MyriadPro-Semibold'" font-size="15">infomation about </text>
<text transform="matrix(1 0 0 1 22 379)" fill="#CC3333" font-family="'MyriadPro-Semibold'" font-size="15">the selected </text>
<text transform="matrix(1 0 0 1 22 397)" fill="#CC3333" font-family="'MyriadPro-Semibold'" font-size="15">example file</text>
<rect x="147" y="437" fill="none" stroke="#CC3333" stroke-width="4" stroke-miterlimit="10" width="211" height="49"/>
<text transform="matrix(1 0 0 1 370 454)" fill="#CC3333" font-family="'MyriadPro-Semibold'" font-size="15">Click here to download the </text>
<text transform="matrix(1 0 0 1 370 472)" fill="#CC3333" font-family="'MyriadPro-Semibold'" font-size="15">selected example file</text>
</svg>
