<?xml version="1.0" encoding="utf-8"?>
<!-- Generator: Adobe Illustrator 15.1.0, SVG Export Plug-In . SVG Version: 6.00 Build 0)  -->
<!DOCTYPE svg PUBLIC "-//W3C//DTD SVG 1.1//EN" "http://www.w3.org/Graphics/SVG/1.1/DTD/svg11.dtd">
<svg version="1.1" id="Layer_1" xmlns="http://www.w3.org/2000/svg" xmlns:xlink="http://www.w3.org/1999/xlink" x="0px" y="0px"
	 width="600px" height="759px" viewBox="0 0 600 759" enable-background="new 0 0 600 759" xml:space="preserve">
<image overflow="visible" width="251" height="756" xlink:href="image.png"  transform="matrix(1 0 0 1 175 0)">
</image>
<rect x="183" y="127.5" fill="none" stroke="#CC3333" stroke-width="4" stroke-miterlimit="10" width="150" height="36.5"/>
<rect x="184" y="184.5" fill="none" stroke="#CC3333" stroke-width="4" stroke-miterlimit="10" width="202" height="24.5"/>
<rect x="182" y="232.5" fill="none" stroke="#CC3333" stroke-width="4" stroke-miterlimit="10" width="218" height="43"/>
<rect x="183" y="285.5" fill="none" stroke="#CC3333" stroke-width="4" stroke-miterlimit="10" width="107" height="12.5"/>
<rect x="181" y="320.5" fill="none" stroke="#CC3333" stroke-width="4" stroke-miterlimit="10" width="218" height="43"/>
<rect x="184" y="387.5" fill="none" stroke="#CC3333" stroke-width="4" stroke-miterlimit="10" width="202" height="24.5"/>
<rect x="185" y="436.5" fill="none" stroke="#CC3333" stroke-width="4" stroke-miterlimit="10" width="202" height="24.5"/>
<rect x="184" y="486.5" fill="none" stroke="#CC3333" stroke-width="4" stroke-miterlimit="10" width="202" height="24.5"/>
<rect x="182" y="535.5" fill="none" stroke="#CC3333" stroke-width="4" stroke-miterlimit="10" width="218" height="43"/>
<rect x="184" y="601.5" fill="none" stroke="#CC3333" stroke-width="4" stroke-miterlimit="10" width="204" height="33.5"/>
<rect x="184" y="656.5" fill="none" stroke="#CC3333" stroke-width="4" stroke-miterlimit="10" width="204" height="33.5"/>
<rect x="184" y="712.5" fill="none" stroke="#CC3333" stroke-width="4" stroke-miterlimit="10" width="204" height="33.5"/>
<text transform="matrix(1 0 0 1 340.5 141.5)" enable-background="new    "><tspan x="0" y="0" fill="#CC3333" font-family="'MyriadPro-Semibold'" font-size="15">Select wheither to display data in the</tspan><tspan x="0" y="18" fill="#CC3333" font-family="'MyriadPro-Semibold'" font-size="15">form of a heatmap or a table.</tspan></text>
<text transform="matrix(1 0 0 1 0 174.5)" enable-background="new    "><tspan x="0" y="0" fill="#CC3333" font-family="'MyriadPro-Semibold'" font-size="15">Change the size of lables for </tspan><tspan x="0" y="18" fill="#CC3333" font-family="'MyriadPro-Semibold'" font-size="15">the rows on the heatmap </tspan><tspan x="0" y="36" fill="#CC3333" font-family="'MyriadPro-Semibold'" font-size="15">plot. There are 4 options </tspan><tspan x="0" y="54" fill="#CC3333" font-family="'MyriadPro-Semibold'" font-size="15">ranging from extra small to </tspan><tspan x="0" y="72" fill="#CC3333" font-family="'MyriadPro-Semibold'" font-size="15">extra large.</tspan></text>
<text transform="matrix(1 0 0 1 406.5 242.5)" enable-background="new    "><tspan x="0" y="0" fill="#CC3333" font-family="'MyriadPro-Semibold'" font-size="15">Select a width for the </tspan><tspan x="0" y="18" fill="#CC3333" font-family="'MyriadPro-Semibold'" font-size="15">heatmap plot.</tspan></text>
<text transform="matrix(1 0 0 1 0 284.5)" enable-background="new    "><tspan x="0" y="0" fill="#CC3333" font-family="'MyriadPro-Semibold'" font-size="15">Click here to automatically </tspan><tspan x="0" y="18" fill="#CC3333" font-family="'MyriadPro-Semibold'" font-size="15">calculate the height based </tspan><tspan x="0" y="36" fill="#CC3333" font-family="'MyriadPro-Semibold'" font-size="15">on the width set above to </tspan><tspan x="0" y="54" fill="#CC3333" font-family="'MyriadPro-Semibold'" font-size="15">make the cells in the </tspan><tspan x="0" y="72" fill="#CC3333" font-family="'MyriadPro-Semibold'" font-size="15">heatmap appear square. </tspan></text>
<text transform="matrix(1 0 0 1 407.5 334.5)" enable-background="new    "><tspan x="0" y="0" fill="#CC3333" font-family="'MyriadPro-Semibold'" font-size="15">Select a height for the </tspan><tspan x="0" y="18" fill="#CC3333" font-family="'MyriadPro-Semibold'" font-size="15">heatmap plot preview.</tspan></text>
<text transform="matrix(1 0 0 1 20 395.5)" enable-background="new    "><tspan x="0" y="0" fill="#CC3333" font-family="'MyriadPro-Semibold'" font-size="15">Select a colour for low </tspan><tspan x="0" y="18" fill="#CC3333" font-family="'MyriadPro-Semibold'" font-size="15">numbers in the data set.</tspan></text>
<text transform="matrix(1 0 0 1 395 445.9453)"><tspan x="0" y="0" fill="#CC3333" font-family="'MyriadPro-Semibold'" font-size="15">Select a colour for missing</tspan><tspan x="0" y="18" fill="#CC3333" font-family="'MyriadPro-Semibold'" font-size="15">numbers in the data set.</tspan></text>
<text transform="matrix(1 0 0 1 19 494.9453)"><tspan x="0" y="0" fill="#CC3333" font-family="'MyriadPro-Semibold'" font-size="15">Select a colour for high </tspan><tspan x="0" y="18" fill="#CC3333" font-family="'MyriadPro-Semibold'" font-size="15">numbers in the data set.</tspan></text>
<text transform="matrix(1 0 0 1 406 542.9453)"><tspan x="0" y="0" fill="#CC3333" font-family="'MyriadPro-Semibold'" font-size="15">Select the number of shades </tspan><tspan x="0" y="18" fill="#CC3333" font-family="'MyriadPro-Semibold'" font-size="15">to use when assigning colours </tspan><tspan x="0" y="36" fill="#CC3333" font-family="'MyriadPro-Semibold'" font-size="15">to cells in the heatmap.</tspan></text>
<text transform="matrix(1 0 0 1 10 613.9453)"><tspan x="0" y="0" fill="#CC3333" font-family="'MyriadPro-Semibold'" font-size="15">Set a title to display at the </tspan><tspan x="0" y="18" fill="#CC3333" font-family="'MyriadPro-Semibold'" font-size="15">top of the heatmap plot.</tspan></text>
<text transform="matrix(1 0 0 1 395 660.9453)"><tspan x="0" y="0" fill="#CC3333" font-family="'MyriadPro-Semibold'" font-size="15">Set a label for the columns to </tspan><tspan x="0" y="18" fill="#CC3333" font-family="'MyriadPro-Semibold'" font-size="15">display on the right side of the </tspan><tspan x="0" y="36" fill="#CC3333" font-family="'MyriadPro-Semibold'" font-size="15">plot.</tspan></text>
<text transform="matrix(1 0 0 1 10 716.9453)"><tspan x="0" y="0" fill="#CC3333" font-family="'MyriadPro-Semibold'" font-size="15">Set a label for the rows to </tspan><tspan x="0" y="18" fill="#CC3333" font-family="'MyriadPro-Semibold'" font-size="15">display on the left side of </tspan><tspan x="0" y="36" fill="#CC3333" font-family="'MyriadPro-Semibold'" font-size="15">the plot.</tspan></text>
</svg>
